<svg width="36" height="36" viewBox="0 0 36 36" fill="none" xmlns="http://www.w3.org/2000/svg">

  <path
    d="M28.5785 25.5115L18.3215 15.2762L15.1115 18.2685L25.4712 28.6133L31.9632 35.0938L35.0705 31.992L28.5785 25.5115Z"
    fill="#763383" />
  <path
    d="M32.9875 12.5027C31.0656 5.13993 24.3921 0 16.7627 0C11.3807 0 6.28987 2.60929 3.14493 6.97635C1.086 9.83186 0 13.2072 0 16.733C0 20.9393 1.55191 24.9131 4.37481 28.0011C2.84688 26.281 1.99385 24.1368 1.99385 21.8113C1.99385 19.3628 2.9291 17.1297 4.46389 15.4506C4.68314 13.3166 5.44368 11.2887 6.70782 9.53434C9.03055 6.30949 12.7887 4.38416 16.7627 4.38416C22.3948 4.38416 27.3178 8.17669 28.7361 13.6107C28.9998 14.623 29.1335 15.6763 29.1335 16.7364C29.1335 19.373 28.3147 21.8866 26.7628 24.0103L26.8895 23.8324L30.0276 26.9649C32.1311 24.0889 33.5254 20.3101 33.5254 16.7364C33.5254 15.3001 33.3438 13.8775 32.9875 12.5027Z"
    fill="#EB6F25" />
  <path
    d="M4.81675 28.4731C4.66601 28.3192 4.5187 28.1619 4.37482 28.0011C4.5187 28.1619 4.66259 28.3192 4.81675 28.4731Z"
    fill="#00A19B" />
  <path
    d="M26.8895 23.829L26.7628 24.0068C25.9919 25.0601 25.0635 25.9835 24.0049 26.7495C21.8878 28.2781 19.3835 29.0852 16.7627 29.0852C13.4225 29.0852 10.2913 27.7754 7.94454 25.3987C6.97503 24.4377 6.38578 23.1758 6.38578 21.8148C6.38578 19.014 8.6674 16.7364 11.4732 16.7364C12.8846 16.7364 14.2002 17.3007 15.1697 18.3266L18.3591 15.3138C16.5777 13.4329 14.0665 12.3522 11.4732 12.3522C8.69823 12.3522 6.19736 13.5492 4.46388 15.454C2.93252 17.1365 1.99384 19.3696 1.99384 21.8148C1.99384 24.1402 2.84687 26.2844 4.3748 28.0046C4.51869 28.1619 4.666 28.3226 4.81674 28.4765C7.99251 31.6979 12.2371 33.4694 16.7627 33.4694C20.3153 33.4694 23.7103 32.375 26.5778 30.3026C27.9001 29.3451 29.0341 28.2576 30.0276 26.9649L26.8895 23.829Z"
    fill="#00A19B" />
</svg>