<svg width="100" height="100" viewBox="0 0 100 100" fill="none" xmlns="http://www.w3.org/2000/svg">
  <path fill-rule="evenodd" clip-rule="evenodd"
    d="M41.8986 19.3688V7.58946C41.8986 6.42742 40.6911 5.65912 39.6385 6.15138L26.3031 12.3876C25.7447 12.6487 25.388 13.2093 25.388 13.8257V25.6051C25.388 26.7671 26.5954 27.5354 27.6481 27.0431L40.9835 20.8069C41.5418 20.5458 41.8986 19.9852 41.8986 19.3688ZM21.0752 34.7694L35.3672 28.2667C36.4183 27.7884 37.6122 28.5568 37.6122 29.7117V38.2498C37.6122 38.8803 37.239 39.4511 36.6614 39.704L33.171 41.2324C32.5905 41.4866 32.2168 42.0617 32.2202 42.6954L32.3677 69.4736C32.3711 70.0916 32.0155 70.6554 31.4564 70.9187L22.2638 75.2467C21.2084 75.7436 19.9955 74.9708 20 73.8043L20.1451 36.2083C20.1475 35.5882 20.5108 35.0262 21.0752 34.7694ZM58.8066 28.6664V16.887C58.8066 15.725 57.5992 14.9567 56.5466 15.449L43.2111 21.6852C42.6528 21.9463 42.296 22.5069 42.296 23.1233V34.9026C42.296 36.0647 43.5035 36.833 44.5561 36.3407L57.8916 30.1045C58.4499 29.8434 58.8066 29.2827 58.8066 28.6664ZM37.9833 44.067L52.2752 37.5643C53.3264 37.086 54.5202 37.8544 54.5202 39.0093V47.5473C54.5202 48.1779 54.1471 48.7486 53.5695 49.0016L50.079 50.53C49.4985 50.7842 49.1248 51.3593 49.1283 51.993L49.2757 78.7712C49.2791 79.3892 48.9236 79.953 48.3644 80.2162L39.1719 84.5443C38.1165 85.0412 36.9036 84.2684 36.9081 83.1019L37.0532 45.5059C37.0556 44.8857 37.4188 44.3238 37.9833 44.067ZM75.7148 26.1839V37.9633C75.7148 38.5796 75.3581 39.1403 74.7998 39.4014L61.4643 45.6376C60.4117 46.1298 59.2042 45.3615 59.2042 44.1995V32.4201C59.2042 31.8038 59.561 31.2431 60.1193 30.9821L73.4548 24.7458C74.5074 24.2536 75.7148 25.0219 75.7148 26.1839ZM78.5254 42.1015L54.867 53.3563C54.3159 53.6185 53.9638 54.1734 53.9615 54.7838L53.8162 92.4073C53.8117 93.5716 55.0206 94.3445 56.0756 93.8518L79.8793 82.7335C80.438 82.4726 80.795 81.9118 80.795 81.2951V43.5351C80.795 42.3686 79.5789 41.6004 78.5254 42.1015Z"
    fill="#27A376" />
</svg>